<svg width="33" height="33" viewBox="0 0 33 33" fill="none" xmlns="http://www.w3.org/2000/svg">
<rect x="0.5" y="0.5" width="32" height="32" rx="4" fill="#40a092"/>
<path d="M17.333 10.6668C17.333 10.2066 16.9599 9.8335 16.4997 9.8335C16.0394 9.8335 15.6663 10.2066 15.6663 10.6668V15.6668H10.6663C10.2061 15.6668 9.83301 16.0399 9.83301 16.5002C9.83301 16.9604 10.2061 17.3335 10.6663 17.3335H15.6663V22.3335C15.6663 22.7937 16.0394 23.1668 16.4997 23.1668C16.9599 23.1668 17.333 22.7937 17.333 22.3335V17.3335H22.333C22.7932 17.3335 23.1663 16.9604 23.1663 16.5002C23.1663 16.0399 22.7932 15.6668 22.333 15.6668H17.333V10.6668Z" fill="white"/>
</svg>
